<svg width="64" height="64" viewBox="0 0 64 64" fill="none" xmlns="http://www.w3.org/2000/svg">
<g filter="url(#filter0_d_1_6109)">
<rect x="4.4" y="0.4" width="55.2" height="55.2" rx="3.6" fill="white" stroke="#E6E6E6" stroke-width="0.8"/>
<path d="M21.1333 21.0015C33.2644 8.40391 47.2617 21.0015 47.2617 21.0015C47.2617 21.0015 33.2644 33.5991 21.1333 21.0015Z" fill="#36C63F"/>
<path d="M38.8938 26.196C43.954 24.6073 47.4454 21.4992 47.5916 21.3676L48 21L47.5916 20.6324C47.4454 20.5008 43.954 17.3927 38.8938 15.804C35.902 14.8647 32.9897 14.6615 30.2377 15.2C26.858 15.8612 23.7256 17.6464 20.9243 20.5054L16 20.5054L16 21.4946L20.9243 21.4946C23.7257 24.3536 26.8579 26.1387 30.2377 26.8C32.9897 27.3384 35.9021 27.1352 38.8938 26.196ZM30.4097 25.8258C27.5163 25.2559 24.806 23.8005 22.3384 21.4946L29.3259 21.4946L31.9805 24.1492L32.6798 23.4498L30.7247 21.4946L36.5294 21.4946L36.5294 20.5054L33.0575 20.5054L35.0127 18.5502L34.3133 17.8509L31.6587 20.5054L26.992 20.5054L28.4806 19.0168L27.7812 18.3174L25.5931 20.5055L22.3384 20.5055C24.806 18.1996 27.5163 16.7441 30.4097 16.1742C32.9942 15.6652 35.7388 15.855 38.5674 16.7384C42.4272 17.9437 45.4068 20.1329 46.4887 21.0001C45.4067 21.8673 42.4272 24.0563 38.5674 25.2618C35.7389 26.145 32.9942 26.3348 30.4097 25.8258Z" fill="#009F06"/>
<path opacity="0.3" d="M38.3945 21.4933L38.3945 20.5042L37.4615 20.5042L37.4615 21.4933L38.3945 21.4933Z" fill="white"/>
<path opacity="0.2" d="M40.2617 21.4933L40.2617 20.5042L39.3287 20.5042L39.3287 21.4933L40.2617 21.4933Z" fill="#1A1A1A"/>
<path d="M11.987 43.64C11.8917 43.64 11.779 43.6097 11.649 43.549C11.5103 43.4883 11.3933 43.367 11.298 43.185C11.194 43.0117 11.142 42.7473 11.142 42.392C11.142 42.0193 11.207 41.5297 11.337 40.923C11.4583 40.325 11.6317 39.662 11.857 38.934C12.0737 38.1973 12.3293 37.4433 12.624 36.672C12.9273 35.9007 13.248 35.1597 13.586 34.449C13.9327 33.7297 14.288 33.084 14.652 32.512C15.0247 31.94 15.393 31.485 15.757 31.147C16.121 30.809 16.472 30.64 16.81 30.64C17.0353 30.64 17.1827 30.7093 17.252 30.848C17.3213 30.978 17.356 31.1297 17.356 31.303C17.356 31.6757 17.252 32.083 17.044 32.525C16.8447 32.967 16.576 33.4133 16.238 33.864C15.9 34.306 15.5187 34.7263 15.094 35.125C14.678 35.5237 14.249 35.866 13.807 36.152C13.7723 36.2387 13.7377 36.3253 13.703 36.412C13.6683 36.4987 13.6337 36.5853 13.599 36.672C13.6943 36.7067 13.768 36.7673 13.82 36.854C13.8807 36.9407 13.9153 37.0317 13.924 37.127C13.9933 37.4997 14.0627 37.8333 14.132 38.128C14.2013 38.414 14.3053 38.6393 14.444 38.804C14.5913 38.9687 14.7993 39.051 15.068 39.051C15.3713 39.051 15.64 38.9383 15.874 38.713C16.108 38.4877 16.3463 38.1713 16.589 37.764L16.875 37.972C16.5977 38.5267 16.2857 38.934 15.939 39.194C15.5923 39.4453 15.2803 39.571 15.003 39.571C14.8557 39.571 14.6997 39.5407 14.535 39.48C14.379 39.4193 14.2273 39.3327 14.08 39.22C14.0713 39.7573 14.0063 40.286 13.885 40.806C13.7723 41.3347 13.6163 41.8113 13.417 42.236C13.2177 42.6607 12.9923 42.9987 12.741 43.25C12.4983 43.51 12.247 43.64 11.987 43.64ZM12.351 42.834C12.4463 42.834 12.546 42.7517 12.65 42.587C12.7627 42.4223 12.871 42.2057 12.975 41.937C13.079 41.6683 13.1743 41.3693 13.261 41.04C13.3477 40.7193 13.417 40.3987 13.469 40.078C13.521 39.766 13.547 39.48 13.547 39.22C13.547 38.9687 13.5167 38.7477 13.456 38.557C13.404 38.3577 13.3087 38.1367 13.17 37.894C12.9707 38.492 12.793 39.0683 12.637 39.623C12.481 40.1777 12.3597 40.6803 12.273 41.131C12.1863 41.5903 12.143 41.9717 12.143 42.275C12.143 42.6477 12.2123 42.834 12.351 42.834ZM14.184 35.242C14.7127 34.748 15.1633 34.267 15.536 33.799C15.9087 33.331 16.1903 32.9193 16.381 32.564C16.5803 32.2 16.68 31.9443 16.68 31.797C16.68 31.7277 16.6453 31.693 16.576 31.693C16.368 31.693 16.1297 31.8533 15.861 32.174C15.5923 32.486 15.315 32.9107 15.029 33.448C14.743 33.9853 14.4613 34.5833 14.184 35.242ZM17.019 40.611C16.733 40.611 16.486 40.5157 16.278 40.325C16.0613 40.1343 15.953 39.8483 15.953 39.467C15.953 39.1637 16.0223 38.8343 16.161 38.479C16.2997 38.1237 16.4903 37.7727 16.733 37.426C16.9757 37.0793 17.253 36.7673 17.565 36.49C17.877 36.204 18.2107 35.9743 18.566 35.801C18.9213 35.6277 19.2767 35.541 19.632 35.541C20.0047 35.541 20.321 35.6363 20.581 35.827C20.841 36.0177 20.971 36.269 20.971 36.581C20.971 36.815 20.8887 36.984 20.724 37.088C20.5593 37.192 20.3643 37.2223 20.139 37.179C20.1563 37.101 20.1693 37.023 20.178 36.945C20.1953 36.867 20.204 36.7847 20.204 36.698C20.204 36.5247 20.1693 36.3687 20.1 36.23C20.0307 36.0913 19.8833 36.022 19.658 36.022C19.4153 36.022 19.1683 36.1043 18.917 36.269C18.6657 36.4337 18.423 36.6503 18.189 36.919C17.9637 37.179 17.76 37.4693 17.578 37.79C17.396 38.102 17.253 38.4097 17.149 38.713C17.045 39.0163 16.993 39.2893 16.993 39.532C16.993 39.8093 17.0927 39.948 17.292 39.948C17.4913 39.948 17.7123 39.8527 17.955 39.662C18.1977 39.4627 18.4403 39.2157 18.683 38.921C18.9343 38.6263 19.1727 38.3273 19.398 38.024C19.6233 37.712 19.8183 37.4477 19.983 37.231C20.009 37.1877 20.0437 37.166 20.087 37.166C20.1217 37.1747 20.1867 37.1963 20.282 37.231C20.386 37.257 20.4813 37.3003 20.568 37.361C20.6547 37.4217 20.698 37.4997 20.698 37.595C20.698 37.6817 20.659 37.7943 20.581 37.933C20.5117 38.063 20.425 38.2103 20.321 38.375C20.2257 38.531 20.139 38.6913 20.061 38.856C19.9917 39.012 19.957 39.1637 19.957 39.311C19.957 39.4237 19.9873 39.532 20.048 39.636C20.1087 39.7313 20.2083 39.779 20.347 39.779C20.555 39.779 20.8453 39.6273 21.218 39.324C21.5993 39.012 21.985 38.4877 22.375 37.751L22.622 37.998C22.414 38.466 22.1627 38.882 21.868 39.246C21.582 39.6013 21.2787 39.8787 20.958 40.078C20.6373 40.286 20.3123 40.39 19.983 40.39C19.6277 40.39 19.3633 40.2773 19.19 40.052C19.0167 39.8267 18.9213 39.584 18.904 39.324C18.904 39.3067 18.904 39.2937 18.904 39.285C18.904 39.2763 18.904 39.2677 18.904 39.259C18.5573 39.675 18.2367 40.0043 17.942 40.247C17.656 40.4897 17.3483 40.611 17.019 40.611ZM24.4724 40.338C24.1517 40.338 23.8917 40.2513 23.6924 40.078C23.493 39.9133 23.3934 39.688 23.3934 39.402C23.3934 39.1593 23.454 38.8993 23.5754 38.622C23.6967 38.3447 23.818 38.0717 23.9394 37.803C24.0694 37.5343 24.1344 37.296 24.1344 37.088C24.1344 36.8887 24.0694 36.724 23.9394 36.594C23.8094 36.4553 23.6577 36.3427 23.4844 36.256C23.2937 36.7327 23.077 37.1963 22.8344 37.647C22.6004 38.089 22.4097 38.4357 22.2624 38.687L22.0674 38.31C22.1887 38.0847 22.349 37.764 22.5484 37.348C22.7477 36.932 22.9384 36.4683 23.1204 35.957C23.0337 35.8703 22.9904 35.7533 22.9904 35.606C22.9904 35.3807 23.0597 35.1683 23.1984 34.969C23.337 34.7697 23.4714 34.67 23.6014 34.67C23.7054 34.67 23.779 34.7307 23.8224 34.852C23.8744 34.9647 23.9004 35.0427 23.9004 35.086C23.9004 35.1293 23.8787 35.2073 23.8354 35.32C23.8007 35.4327 23.7747 35.515 23.7574 35.567C23.766 35.6623 23.8397 35.7577 23.9784 35.853C24.1257 35.9397 24.2904 36.0437 24.4724 36.165C24.6544 36.2863 24.8147 36.438 24.9534 36.62C25.092 36.802 25.1614 37.0317 25.1614 37.309C25.1614 37.5603 25.105 37.816 24.9924 38.076C24.8797 38.336 24.767 38.5787 24.6544 38.804C24.5417 39.0293 24.4854 39.2243 24.4854 39.389C24.4854 39.5103 24.5157 39.5927 24.5764 39.636C24.6457 39.6707 24.7237 39.688 24.8104 39.688C25.0184 39.688 25.235 39.6273 25.4604 39.506C25.6857 39.376 25.9067 39.2113 26.1234 39.012C26.34 38.8127 26.5307 38.6047 26.6954 38.388C26.86 38.1627 26.9857 37.959 27.0724 37.777L27.3844 38.011C27.2197 38.3837 26.9814 38.752 26.6694 39.116C26.3574 39.4713 26.0107 39.766 25.6294 40C25.248 40.2253 24.8624 40.338 24.4724 40.338ZM33.589 40.403C33.251 40.403 32.9997 40.3033 32.835 40.104C32.6704 39.9047 32.588 39.6663 32.588 39.389C32.588 39.1897 32.6184 38.9903 32.679 38.791C32.7397 38.5917 32.8004 38.3967 32.861 38.206C32.9217 38.0067 32.952 37.829 32.952 37.673C32.952 37.5257 32.9217 37.426 32.861 37.374C32.809 37.3133 32.7397 37.283 32.653 37.283C32.4537 37.283 32.2197 37.4347 31.951 37.738C31.691 38.0413 31.366 38.4833 30.976 39.064C30.8374 39.272 30.7074 39.493 30.586 39.727C30.4647 39.9523 30.3564 40.143 30.261 40.299C30.183 40.299 30.079 40.286 29.949 40.26C29.8277 40.234 29.7194 40.195 29.624 40.143C29.5287 40.0997 29.481 40.039 29.481 39.961C29.481 39.883 29.5244 39.7313 29.611 39.506C29.6977 39.2807 29.7974 39.0207 29.91 38.726C30.0227 38.4227 30.1224 38.128 30.209 37.842C30.2957 37.5473 30.339 37.3003 30.339 37.101C30.339 36.9797 30.3174 36.8843 30.274 36.815C30.2307 36.7457 30.1614 36.711 30.066 36.711C29.884 36.711 29.663 36.8193 29.403 37.036C29.1517 37.2527 28.883 37.5387 28.597 37.894C28.3197 38.2407 28.0554 38.6307 27.804 39.064C27.5614 39.4887 27.362 39.9177 27.206 40.351C27.1107 40.351 26.9937 40.3293 26.855 40.286C26.7164 40.2513 26.595 40.2037 26.491 40.143C26.387 40.091 26.335 40.0433 26.335 40C26.335 39.9913 26.3654 39.87 26.426 39.636C26.4867 39.3933 26.5604 39.0943 26.647 38.739C26.7337 38.3837 26.8247 38.0197 26.92 37.647C27.0154 37.2743 27.0977 36.9493 27.167 36.672C27.193 36.5767 27.2884 36.4943 27.453 36.425C27.6177 36.347 27.7607 36.308 27.882 36.308C28.0034 36.308 28.1074 36.347 28.194 36.425C28.2807 36.503 28.324 36.607 28.324 36.737C28.324 36.8237 28.3067 36.9493 28.272 37.114C28.2374 37.2787 28.194 37.465 28.142 37.673C28.324 37.4303 28.5147 37.192 28.714 36.958C28.922 36.7153 29.1344 36.4987 29.351 36.308C29.5764 36.1173 29.7974 35.9657 30.014 35.853C30.2394 35.7403 30.4604 35.684 30.677 35.684C30.9977 35.684 31.2144 35.801 31.327 36.035C31.4397 36.2603 31.496 36.5073 31.496 36.776C31.496 36.8887 31.4874 37.0013 31.47 37.114C31.4527 37.218 31.4267 37.3263 31.392 37.439C31.366 37.543 31.327 37.6687 31.275 37.816C31.4397 37.5733 31.6174 37.3523 31.808 37.153C32.0074 36.945 32.2197 36.7803 32.445 36.659C32.6704 36.5377 32.9087 36.477 33.16 36.477C33.498 36.477 33.732 36.581 33.862 36.789C33.992 36.9883 34.057 37.2093 34.057 37.452C34.057 37.6773 34.018 37.9157 33.94 38.167C33.8707 38.4097 33.797 38.6437 33.719 38.869C33.6497 39.0857 33.615 39.272 33.615 39.428C33.615 39.5147 33.6367 39.597 33.68 39.675C33.7234 39.7443 33.81 39.779 33.94 39.779C34.174 39.779 34.3994 39.6707 34.616 39.454C34.8327 39.2373 35.032 38.973 35.214 38.661C35.4047 38.3403 35.565 38.037 35.695 37.751L35.916 38.024C35.7774 38.3793 35.5954 38.7433 35.37 39.116C35.1534 39.48 34.8977 39.7833 34.603 40.026C34.3084 40.2773 33.9704 40.403 33.589 40.403ZM36.1001 40.611C35.8141 40.611 35.5671 40.5157 35.3591 40.325C35.1424 40.1343 35.0341 39.8483 35.0341 39.467C35.0341 39.1637 35.1034 38.8343 35.2421 38.479C35.3807 38.1237 35.5714 37.7727 35.8141 37.426C36.0567 37.0793 36.3341 36.7673 36.6461 36.49C36.9581 36.204 37.2917 35.9743 37.6471 35.801C38.0024 35.6277 38.3577 35.541 38.7131 35.541C39.0857 35.541 39.4021 35.6363 39.6621 35.827C39.9221 36.0177 40.0521 36.269 40.0521 36.581C40.0521 36.815 39.9697 36.984 39.8051 37.088C39.6404 37.192 39.4454 37.2223 39.2201 37.179C39.2374 37.101 39.2504 37.023 39.2591 36.945C39.2764 36.867 39.2851 36.7847 39.2851 36.698C39.2851 36.5247 39.2504 36.3687 39.1811 36.23C39.1117 36.0913 38.9644 36.022 38.7391 36.022C38.4964 36.022 38.2494 36.1043 37.9981 36.269C37.7467 36.4337 37.5041 36.6503 37.2701 36.919C37.0447 37.179 36.8411 37.4693 36.6591 37.79C36.4771 38.102 36.3341 38.4097 36.2301 38.713C36.1261 39.0163 36.0741 39.2893 36.0741 39.532C36.0741 39.8093 36.1737 39.948 36.3731 39.948C36.5724 39.948 36.7934 39.8527 37.0361 39.662C37.2787 39.4627 37.5214 39.2157 37.7641 38.921C38.0154 38.6263 38.2537 38.3273 38.4791 38.024C38.7044 37.712 38.8994 37.4477 39.0641 37.231C39.0901 37.1877 39.1247 37.166 39.1681 37.166C39.2027 37.1747 39.2677 37.1963 39.3631 37.231C39.4671 37.257 39.5624 37.3003 39.6491 37.361C39.7357 37.4217 39.7791 37.4997 39.7791 37.595C39.7791 37.6817 39.7401 37.7943 39.6621 37.933C39.5927 38.063 39.5061 38.2103 39.4021 38.375C39.3067 38.531 39.2201 38.6913 39.1421 38.856C39.0727 39.012 39.0381 39.1637 39.0381 39.311C39.0381 39.4237 39.0684 39.532 39.1291 39.636C39.1897 39.7313 39.2894 39.779 39.4281 39.779C39.6361 39.779 39.9264 39.6273 40.2991 39.324C40.6804 39.012 41.0661 38.4877 41.4561 37.751L41.7031 37.998C41.4951 38.466 41.2437 38.882 40.9491 39.246C40.6631 39.6013 40.3597 39.8787 40.0391 40.078C39.7184 40.286 39.3934 40.39 39.0641 40.39C38.7087 40.39 38.4444 40.2773 38.2711 40.052C38.0977 39.8267 38.0024 39.584 37.9851 39.324C37.9851 39.3067 37.9851 39.2937 37.9851 39.285C37.9851 39.2763 37.9851 39.2677 37.9851 39.259C37.6384 39.675 37.3177 40.0043 37.0231 40.247C36.7371 40.4897 36.4294 40.611 36.1001 40.611ZM43.5534 40.338C43.2328 40.338 42.9728 40.2513 42.7734 40.078C42.5741 39.9133 42.4744 39.688 42.4744 39.402C42.4744 39.1593 42.5351 38.8993 42.6564 38.622C42.7778 38.3447 42.8991 38.0717 43.0204 37.803C43.1504 37.5343 43.2154 37.296 43.2154 37.088C43.2154 36.8887 43.1504 36.724 43.0204 36.594C42.8904 36.4553 42.7388 36.3427 42.5654 36.256C42.3748 36.7327 42.1581 37.1963 41.9154 37.647C41.6814 38.089 41.4908 38.4357 41.3434 38.687L41.1484 38.31C41.2698 38.0847 41.4301 37.764 41.6294 37.348C41.8288 36.932 42.0194 36.4683 42.2014 35.957C42.1148 35.8703 42.0714 35.7533 42.0714 35.606C42.0714 35.3807 42.1408 35.1683 42.2794 34.969C42.4181 34.7697 42.5524 34.67 42.6824 34.67C42.7864 34.67 42.8601 34.7307 42.9034 34.852C42.9554 34.9647 42.9814 35.0427 42.9814 35.086C42.9814 35.1293 42.9598 35.2073 42.9164 35.32C42.8818 35.4327 42.8558 35.515 42.8384 35.567C42.8471 35.6623 42.9208 35.7577 43.0594 35.853C43.2068 35.9397 43.3714 36.0437 43.5534 36.165C43.7354 36.2863 43.8958 36.438 44.0344 36.62C44.1731 36.802 44.2424 37.0317 44.2424 37.309C44.2424 37.5603 44.1861 37.816 44.0734 38.076C43.9608 38.336 43.8481 38.5787 43.7354 38.804C43.6228 39.0293 43.5664 39.2243 43.5664 39.389C43.5664 39.5103 43.5968 39.5927 43.6574 39.636C43.7268 39.6707 43.8048 39.688 43.8914 39.688C44.0994 39.688 44.3161 39.6273 44.5414 39.506C44.7668 39.376 44.9878 39.2113 45.2044 39.012C45.4211 38.8127 45.6118 38.6047 45.7764 38.388C45.9411 38.1627 46.0668 37.959 46.1534 37.777L46.4654 38.011C46.3008 38.3837 46.0624 38.752 45.7504 39.116C45.4384 39.4713 45.0918 39.766 44.7104 40C44.3291 40.2253 43.9434 40.338 43.5534 40.338ZM46.4951 43.64C46.2784 43.64 46.0748 43.5707 45.8841 43.432C45.7021 43.302 45.6111 43.0897 45.6111 42.795C45.6111 42.5177 45.6934 42.2663 45.8581 42.041C46.0228 41.8243 46.2351 41.6207 46.4951 41.43C46.7551 41.248 47.0324 41.079 47.3271 40.923C47.6304 40.7757 47.9208 40.637 48.1981 40.507C48.2934 40.2557 48.3974 39.9393 48.5101 39.558C48.6314 39.168 48.7354 38.8083 48.8221 38.479C48.5534 38.8517 48.2674 39.181 47.9641 39.467C47.6608 39.753 47.3228 39.896 46.9501 39.896C46.7941 39.896 46.6294 39.8657 46.4561 39.805C46.2828 39.7357 46.1354 39.623 46.0141 39.467C45.9014 39.3023 45.8451 39.0857 45.8451 38.817C45.8451 38.5917 45.8841 38.3187 45.9621 37.998C46.0488 37.6773 46.1528 37.3653 46.2741 37.062C46.4041 36.75 46.5384 36.4943 46.6771 36.295C46.8158 36.087 46.9371 35.983 47.0411 35.983C47.0931 35.983 47.1668 36.0047 47.2621 36.048C47.3661 36.0827 47.4658 36.1347 47.5611 36.204C47.6564 36.2647 47.7171 36.334 47.7431 36.412C47.6651 36.516 47.5784 36.6677 47.4831 36.867C47.3878 37.0577 47.2968 37.2743 47.2101 37.517C47.1234 37.751 47.0498 37.9807 46.9891 38.206C46.9371 38.4313 46.9111 38.6263 46.9111 38.791C46.9111 38.921 46.9371 39.0337 46.9891 39.129C47.0411 39.2243 47.1408 39.272 47.2881 39.272C47.4788 39.272 47.6738 39.194 47.8731 39.038C48.0811 38.882 48.2804 38.6827 48.4711 38.44C48.6704 38.1973 48.8481 37.9503 49.0041 37.699C49.0214 37.6383 49.0388 37.543 49.0561 37.413C49.0734 37.283 49.1038 37.1487 49.1471 37.01C49.1904 36.8627 49.2641 36.7283 49.3681 36.607C49.4808 36.4857 49.6368 36.425 49.8361 36.425C49.9054 36.425 49.9704 36.4293 50.0311 36.438C50.0918 36.4467 50.1654 36.4597 50.2521 36.477C50.2521 36.607 50.2044 36.8627 50.1091 37.244C50.0224 37.6167 49.9054 38.05 49.7581 38.544C49.6108 39.038 49.4461 39.532 49.2641 40.026C49.6281 39.8787 50.0051 39.636 50.3951 39.298C50.7938 38.9513 51.1144 38.4617 51.3571 37.829L51.5781 38.011C51.4481 38.4443 51.2488 38.8213 50.9801 39.142C50.7201 39.4627 50.4254 39.7357 50.0961 39.961C49.7668 40.1863 49.4331 40.3727 49.0951 40.52C48.8611 41.0833 48.6054 41.6033 48.3281 42.08C48.0594 42.5567 47.7734 42.9337 47.4701 43.211C47.1668 43.497 46.8418 43.64 46.4951 43.64ZM46.3651 43.159C46.5298 43.159 46.7594 42.9857 47.0541 42.639C47.3488 42.2923 47.6478 41.7723 47.9511 41.079C47.6738 41.2177 47.3921 41.378 47.1061 41.56C46.8288 41.7507 46.5948 41.95 46.4041 42.158C46.2134 42.366 46.1181 42.5783 46.1181 42.795C46.1181 42.8817 46.1354 42.964 46.1701 43.042C46.2134 43.12 46.2784 43.159 46.3651 43.159Z" fill="#555555"/>
</g>
<defs>
<filter id="filter0_d_1_6109" x="0" y="0" width="64" height="64" filterUnits="userSpaceOnUse" color-interpolation-filters="sRGB">
<feFlood flood-opacity="0" result="BackgroundImageFix"/>
<feColorMatrix in="SourceAlpha" type="matrix" values="0 0 0 0 0 0 0 0 0 0 0 0 0 0 0 0 0 0 127 0" result="hardAlpha"/>
<feOffset dy="4"/>
<feGaussianBlur stdDeviation="2"/>
<feComposite in2="hardAlpha" operator="out"/>
<feColorMatrix type="matrix" values="0 0 0 0 0 0 0 0 0 0 0 0 0 0 0 0 0 0 0.25 0"/>
<feBlend mode="normal" in2="BackgroundImageFix" result="effect1_dropShadow_1_6109"/>
<feBlend mode="normal" in="SourceGraphic" in2="effect1_dropShadow_1_6109" result="shape"/>
</filter>
</defs>
</svg>
