<svg width="151" height="21" viewBox="0 0 151 21" fill="none" xmlns="http://www.w3.org/2000/svg">
<path d="M9.30996 14.9111L12.8565 17.1577C13.3099 17.4446 13.8724 17.0177 13.738 16.4884L12.7136 12.4581C12.6847 12.3458 12.6881 12.2276 12.7233 12.1172C12.7585 12.0067 12.8242 11.9085 12.9128 11.8337L16.0932 9.18712C16.5105 8.83949 16.2956 8.14593 15.7585 8.11105L11.6055 7.84105C11.4937 7.83312 11.3865 7.79359 11.2962 7.72707C11.206 7.66055 11.1365 7.56977 11.0959 7.4653L9.54677 3.56493C9.50459 3.45408 9.42972 3.35867 9.33207 3.29136C9.23443 3.22404 9.11863 3.18799 9.00002 3.18799C8.88142 3.18799 8.76562 3.22404 8.66798 3.29136C8.57033 3.35867 8.49546 3.45408 8.45327 3.56493L6.90415 7.4653C6.8636 7.56988 6.79416 7.66077 6.70394 7.7274C6.61371 7.79402 6.5064 7.83364 6.39453 7.84162L2.24159 8.11161C1.70496 8.14593 1.48896 8.83949 1.9069 9.18712L5.08727 11.8342C5.17576 11.909 5.24138 12.0072 5.2766 12.1175C5.31182 12.2278 5.31522 12.3459 5.2864 12.4581L4.3369 16.1959C4.17546 16.8309 4.85103 17.3434 5.3944 16.9986L8.69065 14.9111C8.78329 14.8522 8.8908 14.8209 9.00059 14.8209C9.11037 14.8209 9.21788 14.8522 9.31052 14.9111H9.30996Z" fill="#FF8A00"/>
<path d="M27.31 14.9111L30.8565 17.1577C31.3099 17.4446 31.8724 17.0177 31.738 16.4884L30.7136 12.4581C30.6847 12.3458 30.6881 12.2276 30.7233 12.1172C30.7585 12.0067 30.8242 11.9085 30.9128 11.8337L34.0931 9.18711C34.5105 8.83949 34.2956 8.14593 33.7585 8.11105L29.6055 7.84105C29.4937 7.83312 29.3865 7.79359 29.2962 7.72707C29.206 7.66055 29.1365 7.56977 29.0959 7.4653L27.5468 3.56493C27.5046 3.45408 27.4297 3.35867 27.3321 3.29136C27.2344 3.22404 27.1186 3.18799 27 3.18799C26.8814 3.18799 26.7656 3.22404 26.668 3.29136C26.5703 3.35867 26.4955 3.45408 26.4533 3.56493L24.9041 7.4653C24.8636 7.56988 24.7942 7.66077 24.7039 7.7274C24.6137 7.79402 24.5064 7.83364 24.3945 7.84161L20.2416 8.11161C19.705 8.14593 19.489 8.83949 19.9069 9.18711L23.0873 11.8342C23.1758 11.909 23.2414 12.0072 23.2766 12.1175C23.3118 12.2278 23.3152 12.3459 23.2864 12.4581L22.3369 16.1959C22.1755 16.8309 22.851 17.3434 23.3944 16.9986L26.6906 14.9111C26.7833 14.8522 26.8908 14.8209 27.0006 14.8209C27.1104 14.8209 27.2179 14.8522 27.3105 14.9111H27.31Z" fill="#FF8A00"/>
<path d="M45.31 14.9111L48.8565 17.1577C49.3099 17.4446 49.8724 17.0177 49.738 16.4884L48.7136 12.4581C48.6847 12.3458 48.6881 12.2276 48.7233 12.1172C48.7585 12.0067 48.8242 11.9085 48.9128 11.8337L52.0931 9.18711C52.5105 8.83949 52.2956 8.14593 51.7585 8.11105L47.6055 7.84105C47.4937 7.83312 47.3865 7.79359 47.2962 7.72707C47.206 7.66055 47.1365 7.56977 47.0959 7.4653L45.5468 3.56493C45.5046 3.45408 45.4297 3.35867 45.3321 3.29136C45.2344 3.22404 45.1186 3.18799 45 3.18799C44.8814 3.18799 44.7656 3.22404 44.668 3.29136C44.5703 3.35867 44.4955 3.45408 44.4533 3.56493L42.9041 7.4653C42.8636 7.56988 42.7942 7.66077 42.7039 7.7274C42.6137 7.79402 42.5064 7.83364 42.3945 7.84161L38.2416 8.11161C37.705 8.14593 37.489 8.83949 37.9069 9.18711L41.0873 11.8342C41.1758 11.909 41.2414 12.0072 41.2766 12.1175C41.3118 12.2278 41.3152 12.3459 41.2864 12.4581L40.3369 16.1959C40.1755 16.8309 40.851 17.3434 41.3944 16.9986L44.6906 14.9111C44.7833 14.8522 44.8908 14.8209 45.0006 14.8209C45.1104 14.8209 45.2179 14.8522 45.3105 14.9111H45.31Z" fill="#FF8A00"/>
<path d="M63.31 14.9111L66.8565 17.1577C67.3099 17.4446 67.8724 17.0177 67.738 16.4884L66.7136 12.4581C66.6847 12.3458 66.6881 12.2276 66.7233 12.1172C66.7585 12.0067 66.8242 11.9085 66.9128 11.8337L70.0931 9.18711C70.5105 8.83949 70.2956 8.14593 69.7585 8.11105L65.6055 7.84105C65.4937 7.83312 65.3865 7.79359 65.2962 7.72707C65.206 7.66055 65.1365 7.56977 65.0959 7.4653L63.5468 3.56493C63.5046 3.45408 63.4297 3.35867 63.3321 3.29136C63.2344 3.22404 63.1186 3.18799 63 3.18799C62.8814 3.18799 62.7656 3.22404 62.668 3.29136C62.5703 3.35867 62.4955 3.45408 62.4533 3.56493L60.9041 7.4653C60.8636 7.56988 60.7942 7.66077 60.7039 7.7274C60.6137 7.79402 60.5064 7.83364 60.3945 7.84161L56.2416 8.11161C55.705 8.14593 55.489 8.83949 55.9069 9.18711L59.0873 11.8342C59.1758 11.909 59.2414 12.0072 59.2766 12.1175C59.3118 12.2278 59.3152 12.3459 59.2864 12.4581L58.3369 16.1959C58.1755 16.8309 58.851 17.3434 59.3944 16.9986L62.6906 14.9111C62.7833 14.8522 62.8908 14.8209 63.0006 14.8209C63.1104 14.8209 63.2179 14.8522 63.3105 14.9111H63.31Z" fill="#FF8A00"/>
<path d="M81.31 14.9111L84.8565 17.1577C85.3099 17.4446 85.8724 17.0177 85.738 16.4884L84.7136 12.4581C84.6847 12.3458 84.6881 12.2276 84.7233 12.1172C84.7585 12.0067 84.8242 11.9085 84.9128 11.8337L88.0931 9.18711C88.5105 8.83949 88.2956 8.14593 87.7585 8.11105L83.6055 7.84105C83.4937 7.83312 83.3865 7.79359 83.2962 7.72707C83.206 7.66055 83.1365 7.56977 83.0959 7.4653L81.5468 3.56493C81.5046 3.45408 81.4297 3.35867 81.3321 3.29136C81.2344 3.22404 81.1186 3.18799 81 3.18799C80.8814 3.18799 80.7656 3.22404 80.668 3.29136C80.5703 3.35867 80.4955 3.45408 80.4533 3.56493L78.9041 7.4653C78.8636 7.56988 78.7942 7.66077 78.7039 7.7274C78.6137 7.79402 78.5064 7.83364 78.3945 7.84161L74.2416 8.11161C73.705 8.14593 73.489 8.83949 73.9069 9.18711L77.0873 11.8342C77.1758 11.909 77.2414 12.0072 77.2766 12.1175C77.3118 12.2278 77.3152 12.3459 77.2864 12.4581L76.3369 16.1959C76.1755 16.8309 76.851 17.3434 77.3944 16.9986L80.6906 14.9111C80.7833 14.8522 80.8908 14.8209 81.0006 14.8209C81.1104 14.8209 81.2179 14.8522 81.3105 14.9111H81.31Z" fill="#CCCCCC"/>
<path d="M94.2924 12.746V11.78L99.2064 4.976H100.732V11.64H102.132V12.746H100.732V15H99.4724V12.746H94.2924ZM99.5284 6.306L95.7624 11.64H99.5284V6.306ZM104.021 15.084C103.778 15.084 103.573 15 103.405 14.832C103.237 14.664 103.153 14.4587 103.153 14.216C103.153 13.9733 103.237 13.768 103.405 13.6C103.573 13.432 103.778 13.348 104.021 13.348C104.254 13.348 104.45 13.432 104.609 13.6C104.777 13.768 104.861 13.9733 104.861 14.216C104.861 14.4587 104.777 14.664 104.609 14.832C104.45 15 104.254 15.084 104.021 15.084ZM106.345 9.834C106.345 8.22867 106.606 6.978 107.129 6.082C107.651 5.17667 108.566 4.724 109.873 4.724C111.17 4.724 112.08 5.17667 112.603 6.082C113.125 6.978 113.387 8.22867 113.387 9.834C113.387 11.4673 113.125 12.7367 112.603 13.642C112.08 14.5473 111.17 15 109.873 15C108.566 15 107.651 14.5473 107.129 13.642C106.606 12.7367 106.345 11.4673 106.345 9.834ZM112.127 9.834C112.127 9.022 112.071 8.336 111.959 7.776C111.856 7.20667 111.637 6.74933 111.301 6.404C110.974 6.05867 110.498 5.886 109.873 5.886C109.238 5.886 108.753 6.05867 108.417 6.404C108.09 6.74933 107.871 7.20667 107.759 7.776C107.656 8.336 107.605 9.022 107.605 9.834C107.605 10.674 107.656 11.3787 107.759 11.948C107.871 12.5173 108.09 12.9747 108.417 13.32C108.753 13.6653 109.238 13.838 109.873 13.838C110.498 13.838 110.974 13.6653 111.301 13.32C111.637 12.9747 111.856 12.5173 111.959 11.948C112.071 11.3787 112.127 10.674 112.127 9.834ZM126.568 15L125.294 13.712C124.818 14.2067 124.309 14.5753 123.768 14.818C123.227 15.0513 122.615 15.168 121.934 15.168C121.262 15.168 120.665 15.0467 120.142 14.804C119.629 14.5613 119.227 14.216 118.938 13.768C118.658 13.32 118.518 12.7973 118.518 12.2C118.518 11.5187 118.709 10.9213 119.092 10.408C119.484 9.88533 120.058 9.47467 120.814 9.176C120.515 8.82133 120.301 8.49467 120.17 8.196C120.039 7.89733 119.974 7.57067 119.974 7.216C119.974 6.80533 120.077 6.43667 120.282 6.11C120.497 5.774 120.8 5.51267 121.192 5.326C121.584 5.13933 122.037 5.046 122.55 5.046C123.054 5.046 123.493 5.144 123.866 5.34C124.239 5.536 124.519 5.81133 124.706 6.166C124.893 6.51133 124.977 6.89867 124.958 7.328H123.684C123.693 6.94533 123.586 6.64667 123.362 6.432C123.138 6.208 122.849 6.096 122.494 6.096C122.121 6.096 121.817 6.20333 121.584 6.418C121.36 6.62333 121.248 6.88933 121.248 7.216C121.248 7.496 121.323 7.76667 121.472 8.028C121.631 8.28933 121.892 8.61133 122.256 8.994L125.168 11.92L125.42 11.528L126.372 9.932H127.744L126.596 11.92C126.437 12.2 126.251 12.494 126.036 12.802L128.234 15H126.568ZM121.934 14.076C122.438 14.076 122.891 13.978 123.292 13.782C123.703 13.586 124.09 13.2827 124.454 12.872L121.584 9.988C120.389 10.4453 119.792 11.1687 119.792 12.158C119.792 12.7087 119.988 13.166 120.38 13.53C120.781 13.894 121.299 14.076 121.934 14.076ZM139.964 7.328V15H138.69V13.866C138.447 14.258 138.107 14.566 137.668 14.79C137.239 15.0047 136.763 15.112 136.24 15.112C135.643 15.112 135.106 14.9907 134.63 14.748C134.154 14.496 133.776 14.1227 133.496 13.628C133.225 13.1333 133.09 12.5313 133.09 11.822V7.328H134.35V11.654C134.35 12.41 134.541 12.9933 134.924 13.404C135.307 13.8053 135.829 14.006 136.492 14.006C137.173 14.006 137.71 13.796 138.102 13.376C138.494 12.956 138.69 12.3447 138.69 11.542V7.328H139.964ZM143.389 8.742C143.641 8.30333 144.014 7.93933 144.509 7.65C145.013 7.35133 145.596 7.202 146.259 7.202C146.94 7.202 147.556 7.36533 148.107 7.692C148.667 8.01867 149.106 8.48067 149.423 9.078C149.74 9.666 149.899 10.352 149.899 11.136C149.899 11.9107 149.74 12.6013 149.423 13.208C149.106 13.8147 148.667 14.286 148.107 14.622C147.556 14.958 146.94 15.126 146.259 15.126C145.606 15.126 145.027 14.9813 144.523 14.692C144.028 14.3933 143.65 14.0247 143.389 13.586V18.64H142.115V7.328H143.389V8.742ZM148.597 11.136C148.597 10.5573 148.48 10.0533 148.247 9.624C148.014 9.19467 147.696 8.868 147.295 8.644C146.903 8.42 146.469 8.308 145.993 8.308C145.526 8.308 145.092 8.42467 144.691 8.658C144.299 8.882 143.982 9.21333 143.739 9.652C143.506 10.0813 143.389 10.5807 143.389 11.15C143.389 11.7287 143.506 12.2373 143.739 12.676C143.982 13.1053 144.299 13.4367 144.691 13.67C145.092 13.894 145.526 14.006 145.993 14.006C146.469 14.006 146.903 13.894 147.295 13.67C147.696 13.4367 148.014 13.1053 148.247 12.676C148.48 12.2373 148.597 11.724 148.597 11.136Z" fill="#1A1A1A"/>
</svg>
