<svg width="150" height="21" viewBox="0 0 150 21" fill="none" xmlns="http://www.w3.org/2000/svg">
<path d="M9.30996 14.9111L12.8565 17.1577C13.3099 17.4446 13.8724 17.0177 13.738 16.4884L12.7136 12.4581C12.6847 12.3458 12.6881 12.2276 12.7233 12.1172C12.7585 12.0067 12.8242 11.9085 12.9128 11.8337L16.0932 9.18712C16.5105 8.83949 16.2956 8.14593 15.7585 8.11105L11.6055 7.84105C11.4937 7.83312 11.3865 7.79359 11.2962 7.72707C11.206 7.66055 11.1365 7.56977 11.0959 7.4653L9.54677 3.56493C9.50459 3.45408 9.42972 3.35867 9.33207 3.29136C9.23443 3.22404 9.11863 3.18799 9.00002 3.18799C8.88142 3.18799 8.76562 3.22404 8.66798 3.29136C8.57033 3.35867 8.49546 3.45408 8.45327 3.56493L6.90415 7.4653C6.8636 7.56988 6.79416 7.66077 6.70394 7.7274C6.61371 7.79402 6.5064 7.83364 6.39453 7.84162L2.24159 8.11161C1.70496 8.14593 1.48896 8.83949 1.9069 9.18712L5.08727 11.8342C5.17576 11.909 5.24138 12.0072 5.2766 12.1175C5.31182 12.2278 5.31522 12.3459 5.2864 12.4581L4.3369 16.1959C4.17546 16.8309 4.85103 17.3434 5.3944 16.9986L8.69065 14.9111C8.78329 14.8522 8.8908 14.8209 9.00059 14.8209C9.11037 14.8209 9.21788 14.8522 9.31052 14.9111H9.30996Z" fill="#FF8A00"/>
<path d="M27.31 14.9111L30.8565 17.1577C31.3099 17.4446 31.8724 17.0177 31.738 16.4884L30.7136 12.4581C30.6847 12.3458 30.6881 12.2276 30.7233 12.1172C30.7585 12.0067 30.8242 11.9085 30.9128 11.8337L34.0931 9.18711C34.5105 8.83949 34.2956 8.14593 33.7585 8.11105L29.6055 7.84105C29.4937 7.83312 29.3865 7.79359 29.2962 7.72707C29.206 7.66055 29.1365 7.56977 29.0959 7.4653L27.5468 3.56493C27.5046 3.45408 27.4297 3.35867 27.3321 3.29136C27.2344 3.22404 27.1186 3.18799 27 3.18799C26.8814 3.18799 26.7656 3.22404 26.668 3.29136C26.5703 3.35867 26.4955 3.45408 26.4533 3.56493L24.9041 7.4653C24.8636 7.56988 24.7942 7.66077 24.7039 7.7274C24.6137 7.79402 24.5064 7.83364 24.3945 7.84161L20.2416 8.11161C19.705 8.14593 19.489 8.83949 19.9069 9.18711L23.0873 11.8342C23.1758 11.909 23.2414 12.0072 23.2766 12.1175C23.3118 12.2278 23.3152 12.3459 23.2864 12.4581L22.3369 16.1959C22.1755 16.8309 22.851 17.3434 23.3944 16.9986L26.6906 14.9111C26.7833 14.8522 26.8908 14.8209 27.0006 14.8209C27.1104 14.8209 27.2179 14.8522 27.3105 14.9111H27.31Z" fill="#CCCCCC"/>
<path d="M45.31 14.9111L48.8565 17.1577C49.3099 17.4446 49.8724 17.0177 49.738 16.4884L48.7136 12.4581C48.6847 12.3458 48.6881 12.2276 48.7233 12.1172C48.7585 12.0067 48.8242 11.9085 48.9128 11.8337L52.0931 9.18711C52.5105 8.83949 52.2956 8.14593 51.7585 8.11105L47.6055 7.84105C47.4937 7.83312 47.3865 7.79359 47.2962 7.72707C47.206 7.66055 47.1365 7.56977 47.0959 7.4653L45.5468 3.56493C45.5046 3.45408 45.4297 3.35867 45.3321 3.29136C45.2344 3.22404 45.1186 3.18799 45 3.18799C44.8814 3.18799 44.7656 3.22404 44.668 3.29136C44.5703 3.35867 44.4955 3.45408 44.4533 3.56493L42.9041 7.4653C42.8636 7.56988 42.7942 7.66077 42.7039 7.7274C42.6137 7.79402 42.5064 7.83364 42.3945 7.84161L38.2416 8.11161C37.705 8.14593 37.489 8.83949 37.9069 9.18711L41.0873 11.8342C41.1758 11.909 41.2414 12.0072 41.2766 12.1175C41.3118 12.2278 41.3152 12.3459 41.2864 12.4581L40.3369 16.1959C40.1755 16.8309 40.851 17.3434 41.3944 16.9986L44.6906 14.9111C44.7833 14.8522 44.8908 14.8209 45.0006 14.8209C45.1104 14.8209 45.2179 14.8522 45.3105 14.9111H45.31Z" fill="#CCCCCC"/>
<path d="M63.31 14.9111L66.8565 17.1577C67.3099 17.4446 67.8724 17.0177 67.738 16.4884L66.7136 12.4581C66.6847 12.3458 66.6881 12.2276 66.7233 12.1172C66.7585 12.0067 66.8242 11.9085 66.9128 11.8337L70.0931 9.18711C70.5105 8.83949 70.2956 8.14593 69.7585 8.11105L65.6055 7.84105C65.4937 7.83312 65.3865 7.79359 65.2962 7.72707C65.206 7.66055 65.1365 7.56977 65.0959 7.4653L63.5468 3.56493C63.5046 3.45408 63.4297 3.35867 63.3321 3.29136C63.2344 3.22404 63.1186 3.18799 63 3.18799C62.8814 3.18799 62.7656 3.22404 62.668 3.29136C62.5703 3.35867 62.4955 3.45408 62.4533 3.56493L60.9041 7.4653C60.8636 7.56988 60.7942 7.66077 60.7039 7.7274C60.6137 7.79402 60.5064 7.83364 60.3945 7.84161L56.2416 8.11161C55.705 8.14593 55.489 8.83949 55.9069 9.18711L59.0873 11.8342C59.1758 11.909 59.2414 12.0072 59.2766 12.1175C59.3118 12.2278 59.3152 12.3459 59.2864 12.4581L58.3369 16.1959C58.1755 16.8309 58.851 17.3434 59.3944 16.9986L62.6906 14.9111C62.7833 14.8522 62.8908 14.8209 63.0006 14.8209C63.1104 14.8209 63.2179 14.8522 63.3105 14.9111H63.31Z" fill="#CCCCCC"/>
<path d="M81.31 14.9111L84.8565 17.1577C85.3099 17.4446 85.8724 17.0177 85.738 16.4884L84.7136 12.4581C84.6847 12.3458 84.6881 12.2276 84.7233 12.1172C84.7585 12.0067 84.8242 11.9085 84.9128 11.8337L88.0931 9.18711C88.5105 8.83949 88.2956 8.14593 87.7585 8.11105L83.6055 7.84105C83.4937 7.83312 83.3865 7.79359 83.2962 7.72707C83.206 7.66055 83.1365 7.56977 83.0959 7.4653L81.5468 3.56493C81.5046 3.45408 81.4297 3.35867 81.3321 3.29136C81.2344 3.22404 81.1186 3.18799 81 3.18799C80.8814 3.18799 80.7656 3.22404 80.668 3.29136C80.5703 3.35867 80.4955 3.45408 80.4533 3.56493L78.9041 7.4653C78.8636 7.56988 78.7942 7.66077 78.7039 7.7274C78.6137 7.79402 78.5064 7.83364 78.3945 7.84161L74.2416 8.11161C73.705 8.14593 73.489 8.83949 73.9069 9.18711L77.0873 11.8342C77.1758 11.909 77.2414 12.0072 77.2766 12.1175C77.3118 12.2278 77.3152 12.3459 77.2864 12.4581L76.3369 16.1959C76.1755 16.8309 76.851 17.3434 77.3944 16.9986L80.6906 14.9111C80.7833 14.8522 80.8908 14.8209 81.0006 14.8209C81.1104 14.8209 81.2179 14.8522 81.3105 14.9111H81.31Z" fill="#CCCCCC"/>
<path d="M97.9968 6.04V4.878H100.629V15H99.3408V6.04H97.9968ZM103.433 15.084C103.191 15.084 102.985 15 102.817 14.832C102.649 14.664 102.565 14.4587 102.565 14.216C102.565 13.9733 102.649 13.768 102.817 13.6C102.985 13.432 103.191 13.348 103.433 13.348C103.667 13.348 103.863 13.432 104.021 13.6C104.189 13.768 104.273 13.9733 104.273 14.216C104.273 14.4587 104.189 14.664 104.021 14.832C103.863 15 103.667 15.084 103.433 15.084ZM105.757 9.834C105.757 8.22867 106.018 6.978 106.541 6.082C107.063 5.17667 107.978 4.724 109.285 4.724C110.582 4.724 111.492 5.17667 112.015 6.082C112.537 6.978 112.799 8.22867 112.799 9.834C112.799 11.4673 112.537 12.7367 112.015 13.642C111.492 14.5473 110.582 15 109.285 15C107.978 15 107.063 14.5473 106.541 13.642C106.018 12.7367 105.757 11.4673 105.757 9.834ZM111.539 9.834C111.539 9.022 111.483 8.336 111.371 7.776C111.268 7.20667 111.049 6.74933 110.713 6.404C110.386 6.05867 109.91 5.886 109.285 5.886C108.65 5.886 108.165 6.05867 107.829 6.404C107.502 6.74933 107.283 7.20667 107.171 7.776C107.068 8.336 107.017 9.022 107.017 9.834C107.017 10.674 107.068 11.3787 107.171 11.948C107.283 12.5173 107.502 12.9747 107.829 13.32C108.165 13.6653 108.65 13.838 109.285 13.838C109.91 13.838 110.386 13.6653 110.713 13.32C111.049 12.9747 111.268 12.5173 111.371 11.948C111.483 11.3787 111.539 10.674 111.539 9.834ZM125.98 15L124.706 13.712C124.23 14.2067 123.721 14.5753 123.18 14.818C122.639 15.0513 122.027 15.168 121.346 15.168C120.674 15.168 120.077 15.0467 119.554 14.804C119.041 14.5613 118.639 14.216 118.35 13.768C118.07 13.32 117.93 12.7973 117.93 12.2C117.93 11.5187 118.121 10.9213 118.504 10.408C118.896 9.88533 119.47 9.47467 120.226 9.176C119.927 8.82133 119.713 8.49467 119.582 8.196C119.451 7.89733 119.386 7.57067 119.386 7.216C119.386 6.80533 119.489 6.43667 119.694 6.11C119.909 5.774 120.212 5.51267 120.604 5.326C120.996 5.13933 121.449 5.046 121.962 5.046C122.466 5.046 122.905 5.144 123.278 5.34C123.651 5.536 123.931 5.81133 124.118 6.166C124.305 6.51133 124.389 6.89867 124.37 7.328H123.096C123.105 6.94533 122.998 6.64667 122.774 6.432C122.55 6.208 122.261 6.096 121.906 6.096C121.533 6.096 121.229 6.20333 120.996 6.418C120.772 6.62333 120.66 6.88933 120.66 7.216C120.66 7.496 120.735 7.76667 120.884 8.028C121.043 8.28933 121.304 8.61133 121.668 8.994L124.58 11.92L124.832 11.528L125.784 9.932H127.156L126.008 11.92C125.849 12.2 125.663 12.494 125.448 12.802L127.646 15H125.98ZM121.346 14.076C121.85 14.076 122.303 13.978 122.704 13.782C123.115 13.586 123.502 13.2827 123.866 12.872L120.996 9.988C119.801 10.4453 119.204 11.1687 119.204 12.158C119.204 12.7087 119.4 13.166 119.792 13.53C120.193 13.894 120.711 14.076 121.346 14.076ZM139.376 7.328V15H138.102V13.866C137.859 14.258 137.519 14.566 137.08 14.79C136.651 15.0047 136.175 15.112 135.652 15.112C135.055 15.112 134.518 14.9907 134.042 14.748C133.566 14.496 133.188 14.1227 132.908 13.628C132.637 13.1333 132.502 12.5313 132.502 11.822V7.328H133.762V11.654C133.762 12.41 133.953 12.9933 134.336 13.404C134.719 13.8053 135.241 14.006 135.904 14.006C136.585 14.006 137.122 13.796 137.514 13.376C137.906 12.956 138.102 12.3447 138.102 11.542V7.328H139.376ZM142.801 8.742C143.053 8.30333 143.427 7.93933 143.921 7.65C144.425 7.35133 145.009 7.202 145.671 7.202C146.353 7.202 146.969 7.36533 147.519 7.692C148.079 8.01867 148.518 8.48067 148.835 9.078C149.153 9.666 149.311 10.352 149.311 11.136C149.311 11.9107 149.153 12.6013 148.835 13.208C148.518 13.8147 148.079 14.286 147.519 14.622C146.969 14.958 146.353 15.126 145.671 15.126C145.018 15.126 144.439 14.9813 143.935 14.692C143.441 14.3933 143.063 14.0247 142.801 13.586V18.64H141.527V7.328H142.801V8.742ZM148.009 11.136C148.009 10.5573 147.893 10.0533 147.659 9.624C147.426 9.19467 147.109 8.868 146.707 8.644C146.315 8.42 145.881 8.308 145.405 8.308C144.939 8.308 144.505 8.42467 144.103 8.658C143.711 8.882 143.394 9.21333 143.151 9.652C142.918 10.0813 142.801 10.5807 142.801 11.15C142.801 11.7287 142.918 12.2373 143.151 12.676C143.394 13.1053 143.711 13.4367 144.103 13.67C144.505 13.894 144.939 14.006 145.405 14.006C145.881 14.006 146.315 13.894 146.707 13.67C147.109 13.4367 147.426 13.1053 147.659 12.676C147.893 12.2373 148.009 11.724 148.009 11.136Z" fill="#1A1A1A"/>
</svg>
