<svg width="115" height="21" viewBox="0 0 115 21" fill="none" xmlns="http://www.w3.org/2000/svg">
<path d="M9.30996 14.9111L12.8565 17.1577C13.3099 17.4446 13.8724 17.0177 13.738 16.4884L12.7136 12.4581C12.6847 12.3458 12.6881 12.2276 12.7233 12.1172C12.7585 12.0067 12.8242 11.9085 12.9128 11.8337L16.0932 9.18712C16.5105 8.83949 16.2956 8.14593 15.7585 8.11105L11.6055 7.84105C11.4937 7.83312 11.3865 7.79359 11.2962 7.72707C11.206 7.66055 11.1365 7.56977 11.0959 7.4653L9.54677 3.56493C9.50459 3.45408 9.42972 3.35867 9.33207 3.29136C9.23443 3.22404 9.11863 3.18799 9.00002 3.18799C8.88142 3.18799 8.76562 3.22404 8.66798 3.29136C8.57033 3.35867 8.49546 3.45408 8.45327 3.56493L6.90415 7.4653C6.8636 7.56988 6.79416 7.66077 6.70394 7.7274C6.61371 7.79402 6.5064 7.83364 6.39453 7.84162L2.24159 8.11161C1.70496 8.14593 1.48896 8.83949 1.9069 9.18712L5.08727 11.8342C5.17576 11.909 5.24138 12.0072 5.2766 12.1175C5.31182 12.2278 5.31522 12.3459 5.2864 12.4581L4.3369 16.1959C4.17546 16.8309 4.85103 17.3434 5.3944 16.9986L8.69065 14.9111C8.78329 14.8522 8.8908 14.8209 9.00059 14.8209C9.11037 14.8209 9.21788 14.8522 9.31052 14.9111H9.30996Z" fill="#FF8A00"/>
<path d="M27.31 14.9111L30.8565 17.1577C31.3099 17.4446 31.8724 17.0177 31.738 16.4884L30.7136 12.4581C30.6847 12.3458 30.6881 12.2276 30.7233 12.1172C30.7585 12.0067 30.8242 11.9085 30.9128 11.8337L34.0931 9.18711C34.5105 8.83949 34.2956 8.14593 33.7585 8.11105L29.6055 7.84105C29.4937 7.83312 29.3865 7.79359 29.2962 7.72707C29.206 7.66055 29.1365 7.56977 29.0959 7.4653L27.5468 3.56493C27.5046 3.45408 27.4297 3.35867 27.3321 3.29136C27.2344 3.22404 27.1186 3.18799 27 3.18799C26.8814 3.18799 26.7656 3.22404 26.668 3.29136C26.5703 3.35867 26.4955 3.45408 26.4533 3.56493L24.9041 7.4653C24.8636 7.56988 24.7942 7.66077 24.7039 7.7274C24.6137 7.79402 24.5064 7.83364 24.3945 7.84161L20.2416 8.11161C19.705 8.14593 19.489 8.83949 19.9069 9.18711L23.0873 11.8342C23.1758 11.909 23.2414 12.0072 23.2766 12.1175C23.3118 12.2278 23.3152 12.3459 23.2864 12.4581L22.3369 16.1959C22.1755 16.8309 22.851 17.3434 23.3944 16.9986L26.6906 14.9111C26.7833 14.8522 26.8908 14.8209 27.0006 14.8209C27.1104 14.8209 27.2179 14.8522 27.3105 14.9111H27.31Z" fill="#FF8A00"/>
<path d="M45.31 14.9111L48.8565 17.1577C49.3099 17.4446 49.8724 17.0177 49.738 16.4884L48.7136 12.4581C48.6847 12.3458 48.6881 12.2276 48.7233 12.1172C48.7585 12.0067 48.8242 11.9085 48.9128 11.8337L52.0931 9.18711C52.5105 8.83949 52.2956 8.14593 51.7585 8.11105L47.6055 7.84105C47.4937 7.83312 47.3865 7.79359 47.2962 7.72707C47.206 7.66055 47.1365 7.56977 47.0959 7.4653L45.5468 3.56493C45.5046 3.45408 45.4297 3.35867 45.3321 3.29136C45.2344 3.22404 45.1186 3.18799 45 3.18799C44.8814 3.18799 44.7656 3.22404 44.668 3.29136C44.5703 3.35867 44.4955 3.45408 44.4533 3.56493L42.9041 7.4653C42.8636 7.56988 42.7942 7.66077 42.7039 7.7274C42.6137 7.79402 42.5064 7.83364 42.3945 7.84161L38.2416 8.11161C37.705 8.14593 37.489 8.83949 37.9069 9.18711L41.0873 11.8342C41.1758 11.909 41.2414 12.0072 41.2766 12.1175C41.3118 12.2278 41.3152 12.3459 41.2864 12.4581L40.3369 16.1959C40.1755 16.8309 40.851 17.3434 41.3944 16.9986L44.6906 14.9111C44.7833 14.8522 44.8908 14.8209 45.0006 14.8209C45.1104 14.8209 45.2179 14.8522 45.3105 14.9111H45.31Z" fill="#FF8A00"/>
<path d="M63.31 14.9111L66.8565 17.1577C67.3099 17.4446 67.8724 17.0177 67.738 16.4884L66.7136 12.4581C66.6847 12.3458 66.6881 12.2276 66.7233 12.1172C66.7585 12.0067 66.8242 11.9085 66.9128 11.8337L70.0931 9.18711C70.5105 8.83949 70.2956 8.14593 69.7585 8.11105L65.6055 7.84105C65.4937 7.83312 65.3865 7.79359 65.2962 7.72707C65.206 7.66055 65.1365 7.56977 65.0959 7.4653L63.5468 3.56493C63.5046 3.45408 63.4297 3.35867 63.3321 3.29136C63.2344 3.22404 63.1186 3.18799 63 3.18799C62.8814 3.18799 62.7656 3.22404 62.668 3.29136C62.5703 3.35867 62.4955 3.45408 62.4533 3.56493L60.9041 7.4653C60.8636 7.56988 60.7942 7.66077 60.7039 7.7274C60.6137 7.79402 60.5064 7.83364 60.3945 7.84161L56.2416 8.11161C55.705 8.14593 55.489 8.83949 55.9069 9.18711L59.0873 11.8342C59.1758 11.909 59.2414 12.0072 59.2766 12.1175C59.3118 12.2278 59.3152 12.3459 59.2864 12.4581L58.3369 16.1959C58.1755 16.8309 58.851 17.3434 59.3944 16.9986L62.6906 14.9111C62.7833 14.8522 62.8908 14.8209 63.0006 14.8209C63.1104 14.8209 63.2179 14.8522 63.3105 14.9111H63.31Z" fill="#FF8A00"/>
<path d="M81.31 14.9111L84.8565 17.1577C85.3099 17.4446 85.8724 17.0177 85.738 16.4884L84.7136 12.4581C84.6847 12.3458 84.6881 12.2276 84.7233 12.1172C84.7585 12.0067 84.8242 11.9085 84.9128 11.8337L88.0931 9.18711C88.5105 8.83949 88.2956 8.14593 87.7585 8.11105L83.6055 7.84105C83.4937 7.83312 83.3865 7.79359 83.2962 7.72707C83.206 7.66055 83.1365 7.56977 83.0959 7.4653L81.5468 3.56493C81.5046 3.45408 81.4297 3.35867 81.3321 3.29136C81.2344 3.22404 81.1186 3.18799 81 3.18799C80.8814 3.18799 80.7656 3.22404 80.668 3.29136C80.5703 3.35867 80.4955 3.45408 80.4533 3.56493L78.9041 7.4653C78.8636 7.56988 78.7942 7.66077 78.7039 7.7274C78.6137 7.79402 78.5064 7.83364 78.3945 7.84161L74.2416 8.11161C73.705 8.14593 73.489 8.83949 73.9069 9.18711L77.0873 11.8342C77.1758 11.909 77.2414 12.0072 77.2766 12.1175C77.3118 12.2278 77.3152 12.3459 77.2864 12.4581L76.3369 16.1959C76.1755 16.8309 76.851 17.3434 77.3944 16.9986L80.6906 14.9111C80.7833 14.8522 80.8908 14.8209 81.0006 14.8209C81.1104 14.8209 81.2179 14.8522 81.3105 14.9111H81.31Z" fill="#FF8A00"/>
<path d="M101.054 5.984H96.1404V9.176C96.3551 8.87733 96.6724 8.63467 97.0924 8.448C97.5124 8.252 97.9651 8.154 98.4504 8.154C99.2251 8.154 99.8551 8.31733 100.34 8.644C100.826 8.96133 101.171 9.37667 101.376 9.89C101.591 10.394 101.698 10.9307 101.698 11.5C101.698 12.172 101.572 12.774 101.32 13.306C101.068 13.838 100.681 14.258 100.158 14.566C99.6451 14.874 99.0058 15.028 98.2404 15.028C97.2604 15.028 96.4671 14.776 95.8604 14.272C95.2538 13.768 94.8851 13.096 94.7544 12.256H96.0004C96.1218 12.788 96.3784 13.2033 96.7704 13.502C97.1624 13.8007 97.6571 13.95 98.2544 13.95C98.9918 13.95 99.5471 13.7307 99.9204 13.292C100.294 12.844 100.48 12.256 100.48 11.528C100.48 10.8 100.294 10.24 99.9204 9.848C99.5471 9.44667 98.9964 9.246 98.2684 9.246C97.7738 9.246 97.3398 9.36733 96.9664 9.61C96.6024 9.84333 96.3364 10.1653 96.1684 10.576H94.9644V4.864H101.054V5.984ZM104.007 15.084C103.765 15.084 103.559 15 103.391 14.832C103.223 14.664 103.139 14.4587 103.139 14.216C103.139 13.9733 103.223 13.768 103.391 13.6C103.559 13.432 103.765 13.348 104.007 13.348C104.241 13.348 104.437 13.432 104.595 13.6C104.763 13.768 104.847 13.9733 104.847 14.216C104.847 14.4587 104.763 14.664 104.595 14.832C104.437 15 104.241 15.084 104.007 15.084ZM106.331 9.834C106.331 8.22867 106.592 6.978 107.115 6.082C107.638 5.17667 108.552 4.724 109.859 4.724C111.156 4.724 112.066 5.17667 112.589 6.082C113.112 6.978 113.373 8.22867 113.373 9.834C113.373 11.4673 113.112 12.7367 112.589 13.642C112.066 14.5473 111.156 15 109.859 15C108.552 15 107.638 14.5473 107.115 13.642C106.592 12.7367 106.331 11.4673 106.331 9.834ZM112.113 9.834C112.113 9.022 112.057 8.336 111.945 7.776C111.842 7.20667 111.623 6.74933 111.287 6.404C110.96 6.05867 110.484 5.886 109.859 5.886C109.224 5.886 108.739 6.05867 108.403 6.404C108.076 6.74933 107.857 7.20667 107.745 7.776C107.642 8.336 107.591 9.022 107.591 9.834C107.591 10.674 107.642 11.3787 107.745 11.948C107.857 12.5173 108.076 12.9747 108.403 13.32C108.739 13.6653 109.224 13.838 109.859 13.838C110.484 13.838 110.96 13.6653 111.287 13.32C111.623 12.9747 111.842 12.5173 111.945 11.948C112.057 11.3787 112.113 10.674 112.113 9.834Z" fill="#1A1A1A"/>
</svg>
