<svg width="150" height="21" viewBox="0 0 150 21" fill="none" xmlns="http://www.w3.org/2000/svg">
<path d="M9.30996 14.9111L12.8565 17.1577C13.3099 17.4446 13.8724 17.0177 13.738 16.4884L12.7136 12.4581C12.6847 12.3458 12.6881 12.2276 12.7233 12.1172C12.7585 12.0067 12.8242 11.9085 12.9128 11.8337L16.0932 9.18712C16.5105 8.83949 16.2956 8.14593 15.7585 8.11105L11.6055 7.84105C11.4937 7.83312 11.3865 7.79359 11.2962 7.72707C11.206 7.66055 11.1365 7.56977 11.0959 7.4653L9.54677 3.56493C9.50459 3.45408 9.42972 3.35867 9.33207 3.29136C9.23443 3.22404 9.11863 3.18799 9.00002 3.18799C8.88142 3.18799 8.76562 3.22404 8.66798 3.29136C8.57033 3.35867 8.49546 3.45408 8.45327 3.56493L6.90415 7.4653C6.8636 7.56988 6.79416 7.66077 6.70394 7.7274C6.61371 7.79402 6.5064 7.83364 6.39453 7.84162L2.24159 8.11161C1.70496 8.14593 1.48896 8.83949 1.9069 9.18712L5.08727 11.8342C5.17576 11.909 5.24138 12.0072 5.2766 12.1175C5.31182 12.2278 5.31522 12.3459 5.2864 12.4581L4.3369 16.1959C4.17546 16.8309 4.85103 17.3434 5.3944 16.9986L8.69065 14.9111C8.78329 14.8522 8.8908 14.8209 9.00059 14.8209C9.11037 14.8209 9.21788 14.8522 9.31052 14.9111H9.30996Z" fill="#FF8A00"/>
<path d="M27.31 14.9111L30.8565 17.1577C31.3099 17.4446 31.8724 17.0177 31.738 16.4884L30.7136 12.4581C30.6847 12.3458 30.6881 12.2276 30.7233 12.1172C30.7585 12.0067 30.8242 11.9085 30.9128 11.8337L34.0931 9.18711C34.5105 8.83949 34.2956 8.14593 33.7585 8.11105L29.6055 7.84105C29.4937 7.83312 29.3865 7.79359 29.2962 7.72707C29.206 7.66055 29.1365 7.56977 29.0959 7.4653L27.5468 3.56493C27.5046 3.45408 27.4297 3.35867 27.3321 3.29136C27.2344 3.22404 27.1186 3.18799 27 3.18799C26.8814 3.18799 26.7656 3.22404 26.668 3.29136C26.5703 3.35867 26.4955 3.45408 26.4533 3.56493L24.9041 7.4653C24.8636 7.56988 24.7942 7.66077 24.7039 7.7274C24.6137 7.79402 24.5064 7.83364 24.3945 7.84161L20.2416 8.11161C19.705 8.14593 19.489 8.83949 19.9069 9.18711L23.0873 11.8342C23.1758 11.909 23.2414 12.0072 23.2766 12.1175C23.3118 12.2278 23.3152 12.3459 23.2864 12.4581L22.3369 16.1959C22.1755 16.8309 22.851 17.3434 23.3944 16.9986L26.6906 14.9111C26.7833 14.8522 26.8908 14.8209 27.0006 14.8209C27.1104 14.8209 27.2179 14.8522 27.3105 14.9111H27.31Z" fill="#FF8A00"/>
<path d="M45.31 14.9111L48.8565 17.1577C49.3099 17.4446 49.8724 17.0177 49.738 16.4884L48.7136 12.4581C48.6847 12.3458 48.6881 12.2276 48.7233 12.1172C48.7585 12.0067 48.8242 11.9085 48.9128 11.8337L52.0931 9.18711C52.5105 8.83949 52.2956 8.14593 51.7585 8.11105L47.6055 7.84105C47.4937 7.83312 47.3865 7.79359 47.2962 7.72707C47.206 7.66055 47.1365 7.56977 47.0959 7.4653L45.5468 3.56493C45.5046 3.45408 45.4297 3.35867 45.3321 3.29136C45.2344 3.22404 45.1186 3.18799 45 3.18799C44.8814 3.18799 44.7656 3.22404 44.668 3.29136C44.5703 3.35867 44.4955 3.45408 44.4533 3.56493L42.9041 7.4653C42.8636 7.56988 42.7942 7.66077 42.7039 7.7274C42.6137 7.79402 42.5064 7.83364 42.3945 7.84161L38.2416 8.11161C37.705 8.14593 37.489 8.83949 37.9069 9.18711L41.0873 11.8342C41.1758 11.909 41.2414 12.0072 41.2766 12.1175C41.3118 12.2278 41.3152 12.3459 41.2864 12.4581L40.3369 16.1959C40.1755 16.8309 40.851 17.3434 41.3944 16.9986L44.6906 14.9111C44.7833 14.8522 44.8908 14.8209 45.0006 14.8209C45.1104 14.8209 45.2179 14.8522 45.3105 14.9111H45.31Z" fill="#CCCCCC"/>
<path d="M63.31 14.9111L66.8565 17.1577C67.3099 17.4446 67.8724 17.0177 67.738 16.4884L66.7136 12.4581C66.6847 12.3458 66.6881 12.2276 66.7233 12.1172C66.7585 12.0067 66.8242 11.9085 66.9128 11.8337L70.0931 9.18711C70.5105 8.83949 70.2956 8.14593 69.7585 8.11105L65.6055 7.84105C65.4937 7.83312 65.3865 7.79359 65.2962 7.72707C65.206 7.66055 65.1365 7.56977 65.0959 7.4653L63.5468 3.56493C63.5046 3.45408 63.4297 3.35867 63.3321 3.29136C63.2344 3.22404 63.1186 3.18799 63 3.18799C62.8814 3.18799 62.7656 3.22404 62.668 3.29136C62.5703 3.35867 62.4955 3.45408 62.4533 3.56493L60.9041 7.4653C60.8636 7.56988 60.7942 7.66077 60.7039 7.7274C60.6137 7.79402 60.5064 7.83364 60.3945 7.84161L56.2416 8.11161C55.705 8.14593 55.489 8.83949 55.9069 9.18711L59.0873 11.8342C59.1758 11.909 59.2414 12.0072 59.2766 12.1175C59.3118 12.2278 59.3152 12.3459 59.2864 12.4581L58.3369 16.1959C58.1755 16.8309 58.851 17.3434 59.3944 16.9986L62.6906 14.9111C62.7833 14.8522 62.8908 14.8209 63.0006 14.8209C63.1104 14.8209 63.2179 14.8522 63.3105 14.9111H63.31Z" fill="#CCCCCC"/>
<path d="M81.31 14.9111L84.8565 17.1577C85.3099 17.4446 85.8724 17.0177 85.738 16.4884L84.7136 12.4581C84.6847 12.3458 84.6881 12.2276 84.7233 12.1172C84.7585 12.0067 84.8242 11.9085 84.9128 11.8337L88.0931 9.18711C88.5105 8.83949 88.2956 8.14593 87.7585 8.11105L83.6055 7.84105C83.4937 7.83312 83.3865 7.79359 83.2962 7.72707C83.206 7.66055 83.1365 7.56977 83.0959 7.4653L81.5468 3.56493C81.5046 3.45408 81.4297 3.35867 81.3321 3.29136C81.2344 3.22404 81.1186 3.18799 81 3.18799C80.8814 3.18799 80.7656 3.22404 80.668 3.29136C80.5703 3.35867 80.4955 3.45408 80.4533 3.56493L78.9041 7.4653C78.8636 7.56988 78.7942 7.66077 78.7039 7.7274C78.6137 7.79402 78.5064 7.83364 78.3945 7.84161L74.2416 8.11161C73.705 8.14593 73.489 8.83949 73.9069 9.18711L77.0873 11.8342C77.1758 11.909 77.2414 12.0072 77.2766 12.1175C77.3118 12.2278 77.3152 12.3459 77.2864 12.4581L76.3369 16.1959C76.1755 16.8309 76.851 17.3434 77.3944 16.9986L80.6906 14.9111C80.7833 14.8522 80.8908 14.8209 81.0006 14.8209C81.1104 14.8209 81.2179 14.8522 81.3105 14.9111H81.31Z" fill="#CCCCCC"/>
<path d="M94.4464 13.978C95.6318 13.026 96.5604 12.2467 97.2324 11.64C97.9044 11.024 98.4691 10.3847 98.9264 9.722C99.3931 9.05 99.6264 8.392 99.6264 7.748C99.6264 7.14133 99.4771 6.66533 99.1784 6.32C98.8891 5.96533 98.4178 5.788 97.7644 5.788C97.1298 5.788 96.6351 5.98867 96.2804 6.39C95.9351 6.782 95.7484 7.30933 95.7204 7.972H94.4884C94.5258 6.92667 94.8431 6.11933 95.4404 5.55C96.0378 4.98067 96.8078 4.696 97.7504 4.696C98.7118 4.696 99.4724 4.962 100.032 5.494C100.602 6.026 100.886 6.75867 100.886 7.692C100.886 8.46667 100.653 9.22267 100.186 9.96C99.7291 10.688 99.2064 11.332 98.6184 11.892C98.0304 12.4427 97.2791 13.0867 96.3644 13.824H101.18V14.888H94.4464V13.978ZM103.269 15.084C103.026 15.084 102.821 15 102.653 14.832C102.485 14.664 102.401 14.4587 102.401 14.216C102.401 13.9733 102.485 13.768 102.653 13.6C102.821 13.432 103.026 13.348 103.269 13.348C103.502 13.348 103.698 13.432 103.857 13.6C104.025 13.768 104.109 13.9733 104.109 14.216C104.109 14.4587 104.025 14.664 103.857 14.832C103.698 15 103.502 15.084 103.269 15.084ZM105.593 9.834C105.593 8.22867 105.854 6.978 106.377 6.082C106.899 5.17667 107.814 4.724 109.121 4.724C110.418 4.724 111.328 5.17667 111.851 6.082C112.373 6.978 112.635 8.22867 112.635 9.834C112.635 11.4673 112.373 12.7367 111.851 13.642C111.328 14.5473 110.418 15 109.121 15C107.814 15 106.899 14.5473 106.377 13.642C105.854 12.7367 105.593 11.4673 105.593 9.834ZM111.375 9.834C111.375 9.022 111.319 8.336 111.207 7.776C111.104 7.20667 110.885 6.74933 110.549 6.404C110.222 6.05867 109.746 5.886 109.121 5.886C108.486 5.886 108.001 6.05867 107.665 6.404C107.338 6.74933 107.119 7.20667 107.007 7.776C106.904 8.336 106.853 9.022 106.853 9.834C106.853 10.674 106.904 11.3787 107.007 11.948C107.119 12.5173 107.338 12.9747 107.665 13.32C108.001 13.6653 108.486 13.838 109.121 13.838C109.746 13.838 110.222 13.6653 110.549 13.32C110.885 12.9747 111.104 12.5173 111.207 11.948C111.319 11.3787 111.375 10.674 111.375 9.834ZM125.816 15L124.542 13.712C124.066 14.2067 123.557 14.5753 123.016 14.818C122.475 15.0513 121.863 15.168 121.182 15.168C120.51 15.168 119.913 15.0467 119.39 14.804C118.877 14.5613 118.475 14.216 118.186 13.768C117.906 13.32 117.766 12.7973 117.766 12.2C117.766 11.5187 117.957 10.9213 118.34 10.408C118.732 9.88533 119.306 9.47467 120.062 9.176C119.763 8.82133 119.549 8.49467 119.418 8.196C119.287 7.89733 119.222 7.57067 119.222 7.216C119.222 6.80533 119.325 6.43667 119.53 6.11C119.745 5.774 120.048 5.51267 120.44 5.326C120.832 5.13933 121.285 5.046 121.798 5.046C122.302 5.046 122.741 5.144 123.114 5.34C123.487 5.536 123.767 5.81133 123.954 6.166C124.141 6.51133 124.225 6.89867 124.206 7.328H122.932C122.941 6.94533 122.834 6.64667 122.61 6.432C122.386 6.208 122.097 6.096 121.742 6.096C121.369 6.096 121.065 6.20333 120.832 6.418C120.608 6.62333 120.496 6.88933 120.496 7.216C120.496 7.496 120.571 7.76667 120.72 8.028C120.879 8.28933 121.14 8.61133 121.504 8.994L124.416 11.92L124.668 11.528L125.62 9.932H126.992L125.844 11.92C125.685 12.2 125.499 12.494 125.284 12.802L127.482 15H125.816ZM121.182 14.076C121.686 14.076 122.139 13.978 122.54 13.782C122.951 13.586 123.338 13.2827 123.702 12.872L120.832 9.988C119.637 10.4453 119.04 11.1687 119.04 12.158C119.04 12.7087 119.236 13.166 119.628 13.53C120.029 13.894 120.547 14.076 121.182 14.076ZM139.212 7.328V15H137.938V13.866C137.695 14.258 137.355 14.566 136.916 14.79C136.487 15.0047 136.011 15.112 135.488 15.112C134.891 15.112 134.354 14.9907 133.878 14.748C133.402 14.496 133.024 14.1227 132.744 13.628C132.473 13.1333 132.338 12.5313 132.338 11.822V7.328H133.598V11.654C133.598 12.41 133.789 12.9933 134.172 13.404C134.555 13.8053 135.077 14.006 135.74 14.006C136.421 14.006 136.958 13.796 137.35 13.376C137.742 12.956 137.938 12.3447 137.938 11.542V7.328H139.212ZM142.637 8.742C142.889 8.30333 143.262 7.93933 143.757 7.65C144.261 7.35133 144.844 7.202 145.507 7.202C146.188 7.202 146.804 7.36533 147.355 7.692C147.915 8.01867 148.354 8.48067 148.671 9.078C148.988 9.666 149.147 10.352 149.147 11.136C149.147 11.9107 148.988 12.6013 148.671 13.208C148.354 13.8147 147.915 14.286 147.355 14.622C146.804 14.958 146.188 15.126 145.507 15.126C144.854 15.126 144.275 14.9813 143.771 14.692C143.276 14.3933 142.898 14.0247 142.637 13.586V18.64H141.363V7.328H142.637V8.742ZM147.845 11.136C147.845 10.5573 147.728 10.0533 147.495 9.624C147.262 9.19467 146.944 8.868 146.543 8.644C146.151 8.42 145.717 8.308 145.241 8.308C144.774 8.308 144.34 8.42467 143.939 8.658C143.547 8.882 143.23 9.21333 142.987 9.652C142.754 10.0813 142.637 10.5807 142.637 11.15C142.637 11.7287 142.754 12.2373 142.987 12.676C143.23 13.1053 143.547 13.4367 143.939 13.67C144.34 13.894 144.774 14.006 145.241 14.006C145.717 14.006 146.151 13.894 146.543 13.67C146.944 13.4367 147.262 13.1053 147.495 12.676C147.728 12.2373 147.845 11.724 147.845 11.136Z" fill="#1A1A1A"/>
</svg>
