<svg width="32" height="32" viewBox="0 0 32 32" fill="none" xmlns="http://www.w3.org/2000/svg">
<g filter="url(#filter0_d_1_6201)">
<path d="M31.9763 0.371204C31.9132 0.178579 31.7373 0.0453919 31.5348 0.0369544C30.5152 -0.00548309 27.7284 0.00182939 23.8827 0.985204C20.303 1.90064 16.9438 3.40533 14.168 5.3367C13.9477 5.49002 13.8935 5.79283 14.0467 6.01314C14.1998 6.23345 14.5027 6.28777 14.7231 6.13452C17.4044 4.2687 20.6551 2.81377 24.1234 1.92683C25.4194 1.59545 26.7592 1.34389 28.0295 1.18627C27.5087 1.4112 26.9505 1.67439 26.3695 1.98289C22.4406 4.06858 20.2455 6.73552 19.0325 8.8792C18.8731 8.16395 18.8294 7.34189 18.8291 6.97552C18.829 6.7072 18.6115 6.48977 18.3432 6.48977C18.0748 6.48977 17.8572 6.70733 17.8572 6.9757C17.8572 7.19077 17.8744 8.98302 18.4172 10.0878C17.6691 11.6852 16.9693 13.2821 16.2923 14.8286C16.0047 15.4855 15.7216 16.132 15.4409 16.7649C15.0031 15.9405 14.4261 14.4479 14.5843 12.4956C14.606 12.2282 14.4068 11.9937 14.1392 11.972C13.8725 11.9508 13.6373 12.1496 13.6156 12.4171C13.3882 15.2219 14.5035 17.1801 14.956 17.848C14.1078 19.7223 13.2715 21.4484 12.3907 22.9217C11.9372 21.895 11.2268 19.9387 11.2268 17.7604C11.2268 17.492 11.0092 17.2745 10.7408 17.2745C10.4725 17.2745 10.2549 17.492 10.2549 17.7604C10.2549 20.6498 11.3725 23.1069 11.7747 23.8975C10.8124 25.3353 9.78484 26.4596 8.62416 27.1438C5.08828 23.3037 4.74341 16.0988 10.9206 9.42739C11.6228 8.66902 12.3934 7.94508 13.2112 7.27577C13.4189 7.10577 13.4494 6.79964 13.2794 6.59195C13.1094 6.38427 12.8032 6.35377 12.5956 6.5237C11.7434 7.22133 10.9399 7.97614 10.2075 8.76708C3.69153 15.8043 4.05866 23.4746 7.79484 27.6765C4.54122 29.8661 0.51547 30.0029 0.473345 30.0041C0.20522 30.0113 -0.0063429 30.2344 0.000657097 30.5026C0.0075946 30.7665 0.22372 30.9758 0.48622 30.9758C0.490532 30.9758 0.494907 30.9757 0.49922 30.9756C0.68572 30.9707 4.98003 30.83 8.49772 28.3732C9.56359 29.2429 11.2355 29.772 13.2626 29.772C15.5575 29.772 18.3077 29.0937 21.1485 27.4638C23.7803 25.9538 25.6671 23.6438 26.7566 20.5981C27.6896 17.9901 28.0042 14.8521 27.6665 11.5234C27.0644 5.58933 29.3061 2.91164 31.8182 0.902017C31.9763 0.775329 32.0394 0.563829 31.9763 0.371204ZM27.6837 4.34633C26.7278 6.34727 26.4059 8.72702 26.6995 11.6214C27.0227 14.8071 26.726 17.798 25.8414 20.2707C24.832 23.0926 23.0903 25.229 20.6648 26.6208C17.604 28.377 15.0348 28.7749 13.4185 28.7995C11.766 28.8254 10.337 28.4726 9.37816 27.8195C10.1762 27.3018 10.9089 26.6075 11.5974 25.7693C11.6353 25.7696 11.6762 25.7698 11.7219 25.7698C12.1991 25.7698 13.0882 25.7493 14.1372 25.6268C16.2358 25.3815 17.8903 24.8636 19.0546 24.0875C19.2779 23.9386 19.3382 23.6369 19.1893 23.4136C19.0405 23.1904 18.7388 23.1301 18.5155 23.2789C16.7219 24.4746 13.8328 24.7343 12.3417 24.7856C13.287 23.4374 14.1577 21.8185 15.0163 20.0255C15.8614 20.0234 18.1045 19.8406 20.2372 18.1404C20.447 17.9731 20.4815 17.6673 20.3142 17.4575C20.1469 17.2476 19.8412 17.2132 19.6313 17.3805C18.0651 18.6291 16.4075 18.9518 15.4846 19.0291C16.0449 17.8166 16.605 16.5374 17.1825 15.2185C17.4805 14.5377 17.7832 13.8468 18.092 13.1512C18.1253 13.152 18.1605 13.1525 18.1975 13.1525C18.93 13.1525 20.3887 12.9738 21.9917 11.7861C22.2073 11.6264 22.2526 11.322 22.0928 11.1064C21.933 10.8908 21.6287 10.8455 21.413 11.0053C20.424 11.738 19.5138 12.0133 18.9243 12.1152C18.7814 12.14 18.6506 12.1556 18.5323 12.1656C18.8156 11.5371 19.1047 10.9065 19.4015 10.2768C21.2118 6.43527 24.4235 4.12058 26.799 2.85527C27.8288 2.30677 28.7953 1.90214 29.5884 1.61302C28.8916 2.34727 28.2116 3.24133 27.6837 4.34633Z" fill="#00B307"/>
</g>
<defs>
<filter id="filter0_d_1_6201" x="-3.99951" y="0.0241699" width="40" height="38.9515" filterUnits="userSpaceOnUse" color-interpolation-filters="sRGB">
<feFlood flood-opacity="0" result="BackgroundImageFix"/>
<feColorMatrix in="SourceAlpha" type="matrix" values="0 0 0 0 0 0 0 0 0 0 0 0 0 0 0 0 0 0 127 0" result="hardAlpha"/>
<feOffset dy="4"/>
<feGaussianBlur stdDeviation="2"/>
<feComposite in2="hardAlpha" operator="out"/>
<feColorMatrix type="matrix" values="0 0 0 0 0 0 0 0 0 0 0 0 0 0 0 0 0 0 0.25 0"/>
<feBlend mode="normal" in2="BackgroundImageFix" result="effect1_dropShadow_1_6201"/>
<feBlend mode="normal" in="SourceGraphic" in2="effect1_dropShadow_1_6201" result="shape"/>
</filter>
</defs>
</svg>
